<svg xmlns="http://www.w3.org/2000/svg" viewBox="0 0 48 48">
  <path d="M41.86,23.74l2.14,5.66c-.63-.09-1.26-.2-1.9-.3l-1.21-3.13-1.24,2.87c-.61-.1-1.21-.14-1.81-.21l2.17-4.95-1.97-5.08h1.82l1.1,2.84,1.18-2.84h1.85l-2.14,5.15ZM36.6,18.59h-1.66v9.82c.54.03,1.1.06,1.66.12v-9.94ZM33.52,28.3c-1.51-.1-3.02-.19-4.56-.23v-9.48h1.69v7.88c.97.02,1.94.1,2.87.15v1.68ZM27.15,22.43v1.69h-2.31v3.84h-1.67v-9.37h4.73v1.69h-3.06v2.15h2.31,0ZM20.34,20.28v7.77c-.56,0-1.14,0-1.69.02v-7.79h-1.75v-1.69h5.19v1.69h-1.76ZM15.08,24.21c-.74,0-1.62,0-2.25.03v2.51c.99-.07,1.98-.15,2.98-.18v1.62l-4.67.37v-9.98h4.67v1.69h-2.98v2.27c.65,0,1.66-.03,2.25-.03v1.69h0ZM5.72,23.27v5.9c-.61.07-1.15.15-1.72.24v-10.81h1.61l2.2,6.14v-6.14h1.69v10.11c-.6.1-1.21.14-1.85.23l-1.93-5.66Z" fill="#e50914"/>
</svg>