<svg xmlns="http://www.w3.org/2000/svg" viewBox="0 0 48 48">
  <path d="M16.03,33.25c.22.25.73.9.81,1.86.11,1.24-.55,2.17-.78,2.5-.75,1.06-1.78,1.45-2.24,1.62-.84.31-1.28.23-2.05.35-.88.13-2.12.53-3.59,1.71-.16-.47-.53-1.8.06-3.26.21-.53.5-.94.74-1.23.19-.19.4-.41.63-.66.39-.41.46-.5.47-.63.03-.33-.34-.69-.72-.76-.3-.07-.57.07-.88.21-.57.27-.72.57-.86.51-.24-.09-.1-1.18.3-2.13.22-.51.62-1.45,1.68-2.14.29-.19,1.3-.83,2.63-.66.91.11,1.54.56,1.81.78-.17.14-.4.37-.65.67-.44.55-.66,1.04-.72,1.15-.23.51-.59,1.39-.27,1.72.27.27.95.02,1.71-.27.67-.25,1.07-.56,1.23-.68.3-.24.52-.47.67-.65h.03,0Z" fill="#faaa00" fill-rule="evenodd"/>
  <path d="M18.35,16.34c-1.29,1.41-2.11,2.61-2.44,3.11-.72,1.07-1.25,2.05-1.66,2.85h0s-3.51-1.63-3.63-1.8c-.29-.38,3.39-3.62,3.57-3.73.57-.35,1.83-1,4.18-.41h-.02s0-.02,0-.02ZM39.99,7.12c-.46-.41-1.11-.42-1.38-.41-2.79.05-6.72,1.2-6.72,1.2-.22.05-.46.12-.71.22.9,1.29,2.06,2.77,3.61,4.29l.32.32c1.39,1.39,2.75,2.47,3.96,3.3.08-.26.15-.49.22-.71,0,0,1.16-3.93,1.21-6.73,0-.29-.02-.9-.4-1.34-.06-.07-.1-.12-.13-.13h.02ZM27.79,31.3h0c-1.07.73-2.05,1.28-2.86,1.68,0,0,1.62,3.51,1.8,3.64.38.28,3.62-3.4,3.74-3.57.35-.57.99-1.82.42-4.18-1.41,1.29-2.63,2.11-3.11,2.44h.01Z" fill="#ff3200" fill-rule="evenodd"/>
  <path d="M34.81,12.41c1.52,1.55,2.99,2.71,4.29,3.61-.19.59-1.23,3.45-1.79,4.47-2.72,5.02-6.41,8.36-6.41,8.36h0c-1.41,1.29-2.63,2.12-3.11,2.44-1.07.73-2.06,1.27-2.86,1.67-.84-1.64-2.24-3.91-4.51-6.16h0c-2.25-2.27-4.52-3.68-6.16-4.52.41-.8.95-1.78,1.67-2.86.32-.48,1.14-1.69,2.43-3.11h0s3.34-3.69,8.36-6.41c1.03-.56,3.87-1.6,4.47-1.79.9,1.29,2.06,2.77,3.61,4.29h0v.02h.01Z" fill="#eee" fill-rule="evenodd"/>
  <path d="M20.4,26.8h0c2.27,2.26,3.68,4.53,4.51,6.17,0,0-2.57,1.16-3.4,1.48-.14.06-.23.09-.24.09-.03,0-.17-.08-.41-.25h-.02c-.33-.23-.83-.59-1.42-1.06-.85-.66-1.89-1.55-2.9-2.54h0c-1-1.02-1.88-2.06-2.54-2.91-.48-.59-.84-1.09-1.06-1.42v-.02c-.17-.24-.25-.38-.25-.41,0-.02.03-.1.09-.24.32-.84,1.48-3.4,1.48-3.4,1.64.84,3.91,2.24,6.16,4.51h0ZM27.47,15.43c-1.24,1.24-1.25,3.25-.03,4.48s3.23,1.23,4.48-.03c1.24-1.24,1.25-3.25.03-4.48-1.23-1.23-3.23-1.23-4.48.03Z" fill="#5a646e" fill-rule="evenodd"/>
</svg>
